<?xml version="1.0" encoding="UTF-8" standalone="no"?>
<svg
   xmlns:dc="http://purl.org/dc/elements/1.1/"
   xmlns:cc="http://creativecommons.org/ns#"
   xmlns:rdf="http://www.w3.org/1999/02/22-rdf-syntax-ns#"
   xmlns:svg="http://www.w3.org/2000/svg"
   xmlns="http://www.w3.org/2000/svg"
   xmlns:sodipodi="http://sodipodi.sourceforge.net/DTD/sodipodi-0.dtd"
   xmlns:inkscape="http://www.inkscape.org/namespaces/inkscape"
   inkscape:export-ydpi="209.80296"
   inkscape:export-xdpi="209.80296"
   inkscape:export-filename="/home/eduardo/Pictures/csl_logo.png"
   inkscape:version="1.0 (4035a4fb49, 2020-05-01)"
   sodipodi:docname="csl_logo_nobackground.svg"
   viewBox="0 0 84.650853 84.650853"
   height="84.650856"
   width="84.650856"
   id="svg97"
   version="1.1">
  <metadata
     id="metadata103">
    <rdf:RDF>
      <cc:Work
         rdf:about="">
        <dc:format>image/svg+xml</dc:format>
        <dc:type
           rdf:resource="http://purl.org/dc/dcmitype/StillImage" />
        <dc:title></dc:title>
      </cc:Work>
    </rdf:RDF>
  </metadata>
  <defs
     id="defs101" />
  <sodipodi:namedview
     fit-margin-bottom="0"
     fit-margin-right="0"
     fit-margin-left="0"
     fit-margin-top="0"
     inkscape:current-layer="g105"
     inkscape:window-maximized="0"
     inkscape:window-y="58"
     inkscape:window-x="20"
     inkscape:cy="38.773958"
     inkscape:cx="-0.99492508"
     inkscape:zoom="2.8284271"
     showgrid="false"
     id="namedview99"
     inkscape:window-height="686"
     inkscape:window-width="1318"
     inkscape:pageshadow="2"
     inkscape:pageopacity="0"
     guidetolerance="10"
     gridtolerance="10"
     objecttolerance="10"
     borderopacity="1"
     bordercolor="#666666"
     pagecolor="#ffffff"
     inkscape:document-rotation="0" />
  <g
     transform="translate(-8.5305977,-3.2267299)"
     id="g105"
     inkscape:label="Image"
     inkscape:groupmode="layer">
    <g
       transform="translate(-5.597763,-7.6594772)"
       id="g3031">
      <path
         style="opacity:1;fill:#e55d00;fill-opacity:1;stroke:none;stroke-width:0.385592;stroke-miterlimit:4;stroke-dasharray:none;stop-color:#000000"
         d="M 24.978689,33.738661 H 56.474621 L 51.279677,53.907699 H 38.111391 Z"
         id="rect2997"
         sodipodi:nodetypes="ccccc" />
      <rect
         style="opacity:1;fill:#ff6800;fill-opacity:1;stroke:none;stroke-width:0.392249;stroke-miterlimit:4;stroke-dasharray:none;stop-color:#000000"
         id="rect934"
         width="24.182066"
         height="20.827328"
         x="60.194969"
         y="38.970394"
         inkscape:transform-center-x="-9.6099037"
         inkscape:transform-center-y="10.220878"
         transform="matrix(1,0,-0.24942921,0.96839303,0,0)" />
      <path
         style="fill:#2b0000;stroke:#000000;stroke-width:0.3;stroke-linecap:butt;stroke-linejoin:miter;stroke-miterlimit:4;stroke-dasharray:none;stroke-opacity:1"
         d="m 24.095222,34.511873 25.746274,39.503526 c -0.760896,1.760472 -2.07999,1.789012 -3.359708,1.939728 L 23.189412,35.082023 c 0.02265,-0.686792 0.443651,-0.665076 0.90581,-0.57015 z"
         id="path109"
         sodipodi:nodetypes="ccccc" />
      <path
         style="opacity:1;fill:#ff8433;fill-opacity:1;stroke:none;stroke-width:0.385592;stroke-miterlimit:4;stroke-dasharray:none;stop-color:#000000"
         d="m 68.647167,41.739731 -5.185422,20.167968 h 26.36344 l -0.002,-0.171874 -4.382812,-4.921876 -4.396485,-4.935546 4.316406,-5.070313 4.253907,-4.998047 v -0.07031 z"
         id="rect936"
         sodipodi:nodetypes="cccccccccc" />
      <path
         style="font-style:italic;font-variant:normal;font-weight:bold;font-stretch:normal;font-size:16px;line-height:1.25;font-family:sans-serif;-inkscape-font-specification:'sans-serif, Bold Italic';font-variant-ligatures:normal;font-variant-caps:normal;font-variant-numeric:normal;font-variant-east-asian:normal;fill:#fefefe;fill-opacity:1;stroke:none"
         d="m 41.957699,49.305945 q -2.08,0 -3.136,-1.216 -1.056,-1.216 -1.056,-3.264 0,-1.008 0.224,-2.032 0.24,-1.04 0.704,-1.968 0.48,-0.944 1.2,-1.68 0.72,-0.752 1.712,-1.168 0.992,-0.432 2.272,-0.432 1.088,0 1.84,0.208 0.768,0.192 1.52,0.608 l -0.928,1.952 q -0.544,-0.32 -1.136,-0.528 -0.576,-0.224 -1.296,-0.224 -0.96,0 -1.664,0.48 -0.688,0.48 -1.136,1.248 -0.448,0.768 -0.672,1.68 -0.208,0.896 -0.208,1.728 0,1.296 0.528,1.936 0.544,0.64 1.712,0.64 0.64,0 1.312,-0.16 0.672,-0.176 1.328,-0.448 v 2.032 q -0.48,0.192 -1.28,0.4 -0.8,0.208 -1.84,0.208 z"
         id="path3008" />
      <path
         style="font-style:italic;font-variant:normal;font-weight:bold;font-stretch:normal;font-size:16px;line-height:1.25;font-family:sans-serif;-inkscape-font-specification:'sans-serif, Bold Italic';font-variant-ligatures:normal;font-variant-caps:normal;font-variant-numeric:normal;font-variant-east-asian:normal;fill:#fefefe;fill-opacity:1;stroke:none"
         d="m 58.472841,53.602363 q -0.864,0 -1.584,-0.192 -0.704,-0.192 -1.2,-0.512 v -2.144 q 0.704,0.4 1.392,0.624 0.688,0.224 1.408,0.224 0.784,0 1.312,-0.304 0.544,-0.304 0.544,-0.944 0,-0.656 -0.384,-1.024 -0.384,-0.384 -0.992,-0.832 -0.48,-0.336 -0.928,-0.768 -0.448,-0.448 -0.736,-1.024 -0.288,-0.592 -0.288,-1.376 0,-1.008 0.48,-1.792 0.48,-0.784 1.36,-1.232 0.896,-0.448 2.08,-0.448 0.896,0 1.648,0.192 0.752,0.192 1.456,0.576 l -0.848,1.824 q -1.232,-0.576 -2.256,-0.576 -0.64,0 -1.056,0.352 -0.416,0.336 -0.416,0.928 0,0.608 0.368,0.976 0.368,0.352 1.04,0.8 0.944,0.624 1.408,1.376 0.48,0.752 0.48,1.76 0,1.2 -0.592,1.984 -0.576,0.784 -1.552,1.168 -0.96,0.384 -2.144,0.384 z"
         id="path3010" />
      <path
         style="font-style:italic;font-variant:normal;font-weight:bold;font-stretch:normal;font-size:16px;line-height:1.25;font-family:sans-serif;-inkscape-font-specification:'sans-serif, Bold Italic';font-variant-ligatures:normal;font-variant-caps:normal;font-variant-numeric:normal;font-variant-east-asian:normal;fill:#fefefe;fill-opacity:1;stroke:none"
         d="m 72.613871,56.983445 2.416,-11.424 h 2.384 l -2,9.424 h 4 l -0.416,2 z"
         id="path3012" />
    </g>
  </g>
</svg>
