<?xml version="1.0" encoding="UTF-8" standalone="no"?>
<svg
   xmlns:dc="http://purl.org/dc/elements/1.1/"
   xmlns:cc="http://creativecommons.org/ns#"
   xmlns:rdf="http://www.w3.org/1999/02/22-rdf-syntax-ns#"
   xmlns:svg="http://www.w3.org/2000/svg"
   xmlns="http://www.w3.org/2000/svg"
   xmlns:sodipodi="http://sodipodi.sourceforge.net/DTD/sodipodi-0.dtd"
   xmlns:inkscape="http://www.inkscape.org/namespaces/inkscape"
   inkscape:version="1.0 (4035a4fb49, 2020-05-01)"
   sodipodi:docname="thinking_csl.svg"
   version="1.1"
   viewBox="0 0 72 72"
   id="emoji">
  <metadata
     id="metadata1825">
    <rdf:RDF>
      <cc:Work
         rdf:about="">
        <dc:format>image/svg+xml</dc:format>
        <dc:type
           rdf:resource="http://purl.org/dc/dcmitype/StillImage" />
        <dc:title></dc:title>
      </cc:Work>
    </rdf:RDF>
  </metadata>
  <defs
     id="defs1823" />
  <sodipodi:namedview
     inkscape:current-layer="emoji"
     inkscape:window-maximized="0"
     inkscape:window-y="58"
     inkscape:window-x="20"
     inkscape:cy="41.728654"
     inkscape:cx="-0.76428913"
     inkscape:zoom="4.0347222"
     showgrid="false"
     id="namedview1821"
     inkscape:window-height="686"
     inkscape:window-width="1318"
     inkscape:pageshadow="2"
     inkscape:pageopacity="0"
     guidetolerance="10"
     gridtolerance="10"
     objecttolerance="10"
     borderopacity="1"
     bordercolor="#666666"
     pagecolor="#ffffff" />
  <path
     style="stroke:#25383e;stroke-opacity:1"
     fill="none"
     stroke="#000000"
     stroke-linecap="round"
     stroke-linejoin="round"
     stroke-width="2"
     d="M 28.9,44.5 C 31.3,43.8 40.8,45 43,46.6"
     id="path1805" />
  <path
     style="stroke:#25383e;stroke-opacity:1"
     fill="none"
     stroke="#000000"
     stroke-linecap="round"
     stroke-linejoin="round"
     stroke-width="2"
     d="m 22.4,22.5 c 1.3,-0.9 2.8,-1.3 4.4,-1.1 1.6,0 3.1,0.6 4.2,1.7"
     id="path1807" />
  <path
     style="stroke:#25383e;stroke-opacity:1"
     fill="none"
     stroke="#000000"
     stroke-linecap="round"
     stroke-linejoin="round"
     stroke-width="2"
     d="M 51.1,26.5 C 48.4,25.8 45.6,25.7 42.9,26.2"
     id="path1809" />
  <path
     style="stroke:#25383e;stroke-opacity:1"
     fill="none"
     stroke="#000000"
     stroke-linecap="round"
     stroke-linejoin="round"
     stroke-width="2"
     d="M 42,58.4 C 54.3,55.1 61.5,42.5 58.2,30.2 54.9,17.9 42.3,10.7 30,14 20,16.7 13,25.8 13,36.2 c 0,4.6 1.4,9.2 4,13"
     id="path1811" />
  <path
     style="fill-opacity:1;fill:#25383e"
     d="m 31,30.7 c 0,1.7 -1.3,3 -3,3 -1.7,0 -3,-1.3 -3,-3 0,-1.7 1.3,-3 3,-3 1.7,0 3,1.3 3,3"
     id="path1813" />
  <path
     style="fill:#25383e;fill-opacity:1"
     d="m 48,33.7 c 0,1.7 -1.3,3 -3,3 -1.7,0 -3,-1.3 -3,-3 0,-1.7 1.3,-3 3,-3 1.7,0 3,1.3 3,3"
     id="path1815" />
  <path
     style="stroke:#25383e;stroke-opacity:1"
     fill="none"
     stroke="#000000"
     stroke-linecap="round"
     stroke-linejoin="round"
     stroke-width="2"
     d="m 19.7,56.7 c -1,1.6 -1.2,3.7 -0.5,5.5 1.1,3.3 4,5.2 7.2,4.2 l 4.9,-1.4 1,-0.3 c 0.8,-0.2 1.3,-1.1 1.1,-1.8 v 0 c -0.2,-0.5 -0.6,-0.9 -1.2,-1 l 1.2,-0.3 c 0.8,-0.2 1.3,-1.1 1.1,-1.8 -0.2,-0.5 -0.6,-1 -1.2,-1.1 l 1.2,-0.4 c 0.8,-0.2 1.3,-1.1 1.1,-1.8 -0.1,-0.5 -0.5,-0.9 -1,-1 L 41,53.6 c 0.8,-0.2 1.3,-1.1 1.1,-1.8 -0.2,-0.7 -1.1,-1.3 -1.8,-1.1 v 0 l -10.2,3 -5.1,1.5 0.6,-7.8 c 0.1,-0.9 -1.5,-1.2 -2.1,0.2 z"
     id="path1817" />
</svg>
