<?xml version="1.0" encoding="UTF-8" standalone="no"?>
<svg
   xmlns:dc="http://purl.org/dc/elements/1.1/"
   xmlns:cc="http://creativecommons.org/ns#"
   xmlns:rdf="http://www.w3.org/1999/02/22-rdf-syntax-ns#"
   xmlns:svg="http://www.w3.org/2000/svg"
   xmlns="http://www.w3.org/2000/svg"
   xmlns:sodipodi="http://sodipodi.sourceforge.net/DTD/sodipodi-0.dtd"
   xmlns:inkscape="http://www.inkscape.org/namespaces/inkscape"
   id="emoji"
   viewBox="0 0 152 96"
   version="1.1"
   sodipodi:docname="tutorials.svg"
   width="152"
   height="96"
   inkscape:version="1.0 (4035a4fb49, 2020-05-01)">
  <metadata
     id="metadata1919">
    <rdf:RDF>
      <cc:Work
         rdf:about="">
        <dc:format>image/svg+xml</dc:format>
        <dc:type
           rdf:resource="http://purl.org/dc/dcmitype/StillImage" />
        <dc:title></dc:title>
      </cc:Work>
    </rdf:RDF>
  </metadata>
  <defs
     id="defs1917" />
  <sodipodi:namedview
     inkscape:document-rotation="0"
     pagecolor="#ffffff"
     bordercolor="#666666"
     borderopacity="1"
     objecttolerance="10"
     gridtolerance="10"
     guidetolerance="10"
     inkscape:pageopacity="0"
     inkscape:pageshadow="2"
     inkscape:window-width="1318"
     inkscape:window-height="686"
     id="namedview1915"
     showgrid="false"
     inkscape:zoom="1.4706839"
     inkscape:cx="54.843299"
     inkscape:cy="54.879533"
     inkscape:window-x="20"
     inkscape:window-y="58"
     inkscape:window-maximized="0"
     inkscape:current-layer="emoji" />
  <g
     id="g2613"
     transform="matrix(1.367658,0,0,1.367658,1.2566909,-1.235688)">
    <path
       style="fill:#25383e;fill-opacity:1;stroke:none;stroke-opacity:1"
       d="m 35.478302,60.24225 c -0.4844,0.001 -0.9102,-0.3525 -0.9863,-0.8466 -0.0411,-0.2696 -0.9727,-6.6328 2.581,-10.7754 1.9229,-2.2412 4.751,-3.377 8.4072,-3.377 0.1973,0 0.3907,0.0586 0.5547,0.168 3.1631,2.1084 5.6758,3.418 8.4053,3.4238 h 0.04 c 0.5518,0 0.9991,0.4473 1,0.999 0.001,0.5518 -0.4462,1 -0.998,1.001 -10e-4,0 -10e-4,0 -0.002,0 h -0.0029 c -0.0107,-0.001 -0.0254,-0.001 -0.0381,0 h -0.084 c -0.0146,0 -0.0302,0 -0.0449,-0.001 -3.0986,-0.0419 -5.8164,-1.4023 -9.1269,-3.5878 -2.8965,0.0566 -5.1104,0.9541 -6.586,2.6689 -2.956,3.4365 -2.1377,9.1201 -2.1289,9.1777 0.083,0.545 -0.292,1.0547 -0.8379,1.1387 -0.0507,0.0078 -0.1015,0.0107 -0.1523,0.0107 z"
       id="path1887" />
    <polygon
       transform="translate(18.561302,1.32335)"
       style="stroke:#25383e;stroke-opacity:1"
       fill="none"
       stroke="#000000"
       stroke-linecap="round"
       stroke-linejoin="round"
       stroke-miterlimit="10"
       stroke-width="2"
       points="60.1367,59.7725 67.0867,43.4225 42.0967,43.4225 35.1467,59.7725 "
       id="polygon1893" />
    <line
       style="stroke:#25383e;stroke-opacity:1"
       x1="42.738003"
       x2="53.708004"
       y1="61.095848"
       y2="61.095848"
       fill="none"
       stroke="#000000"
       stroke-linecap="round"
       stroke-linejoin="round"
       stroke-miterlimit="10"
       stroke-width="2"
       id="line1895" />
  </g>
  <g
     id="g2608"
     transform="matrix(1.367658,0,0,1.367658,1.3787988,-1.235688)">
    <path
       style="stroke:#25383e;stroke-opacity:1"
       fill="none"
       stroke="#000000"
       stroke-linecap="round"
       stroke-linejoin="round"
       stroke-miterlimit="10"
       stroke-width="2"
       d="M 46.002702,26.49435"
       id="path1897" />
    <path
       style="fill:#25383e;fill-opacity:1;stroke:none;stroke-opacity:1"
       d="m 60.514202,28.37015 c 0,1.1046 -0.8954,2 -2,2 -1.1046,0 -2,-0.8954 -2,-2 0,-1.1046 0.8954,-2 2,-2 1.1044,4e-4 1.9996,0.8956 2,2"
       id="path1899" />
    <path
       style="fill:#25383e;fill-opacity:1;stroke:none;stroke-opacity:1"
       d="m 52.514202,28.37015 c 0,1.1046 -0.8954,2 -2,2 -1.1046,0 -2,-0.8954 -2,-2 0,-1.1046 0.8954,-2 2,-2 1.1044,4e-4 1.9996,0.8956 2,2"
       id="path1901" />
    <path
       style="fill:#25383e;fill-opacity:1;stroke:none;stroke-opacity:1"
       d="m 54.514002,38.37255 c -1.2005,-0.0116 -2.3813,-0.3055 -3.4472,-0.8579 -0.494,-0.247 -0.6943,-0.8477 -0.4473,-1.3418 0.247,-0.4941 0.8477,-0.6943 1.3418,-0.4473 1.5934,0.8593 3.5121,0.8593 5.1055,0 0.494,-0.247 1.0947,-0.0468 1.3418,0.4473 0.2471,0.4941 0.0468,1.0947 -0.4473,1.3418 -1.0659,0.5524 -2.2468,0.8463 -3.4473,0.8579 z"
       id="path1903" />
    <path
       style="stroke:#25383e;stroke-opacity:1"
       fill="none"
       stroke="#000000"
       stroke-linecap="round"
       stroke-linejoin="round"
       stroke-width="2"
       d="m 44.561302,37.90415 c -4,0 -4,-6 -4,-13 0,-7 4,-14 14,-14 10,0 14,7 14,14 0,7 0,13 -4,13"
       id="path1905" />
    <path
       style="stroke:#25383e;stroke-opacity:1"
       fill="none"
       stroke="#000000"
       stroke-linejoin="round"
       stroke-width="2"
       d="m 43.497802,29.90415 c 0,9 4.9365,14 11,14 5.9365,0 11.0635,-5 11.0635,-14 0.0245,-1.7187 -0.3164,-3.4229 -1,-5 -3,-3 -7,-8 -7,-8 -4,3 -7,6 -13,7.0005 0,-5e-4 -1.0635,0.9987 -1.0635,5.9995 z"
       id="path1907" />
    <path
       style="stroke:#25383e;stroke-opacity:1"
       fill="none"
       stroke="#000000"
       stroke-linecap="round"
       stroke-linejoin="round"
       stroke-miterlimit="10"
       stroke-width="2"
       d="M 52.579102,20.29555"
       id="path1911" />
  </g>
</svg>
